<?xml version="1.0" encoding="utf-8"?>
<!-- Generator: Adobe Illustrator 17.1.0, SVG Export Plug-In . SVG Version: 6.00 Build 0)  -->
<!DOCTYPE svg PUBLIC "-//W3C//DTD SVG 1.1//EN" "http://www.w3.org/Graphics/SVG/1.1/DTD/svg11.dtd">
<svg version="1.1" xmlns="http://www.w3.org/2000/svg" xmlns:xlink="http://www.w3.org/1999/xlink" x="0px" y="0px"
	 viewBox="0 0 600 600" enable-background="new 0 0 600 600" xml:space="preserve">
<g id="bg">
	<circle cx="300" cy="319.8" r="150"/>
</g>
<g id="Layer_2">
</g>
<g id="Layer_3">
	<g>
		<defs>
			<path id="SVGID_1_" d="M142.2,308.3c0,5.7-4.6,10.3-10.3,10.3c-5.7,0-10.3-4.6-10.3-10.3s4.6-10.3,10.3-10.3
				C137.6,297.9,142.2,302.6,142.2,308.3z M368.2,384.4c-2.2,0-4.1,1.8-4.1,4.1s1.8,4.1,4.1,4.1s4.1-1.8,4.1-4.1
				S370.4,384.4,368.2,384.4z M438.8,253c-5,0-9,4-9,9c0,5,4,9,9,9c5,0,9-4,9-9C447.7,257,443.7,253,438.8,253z M548.9,182
				c-5,0-9,4-9,9c0,5,4,9,9,9s9-4,9-9C557.9,186,553.8,182,548.9,182z M40.8,402.8c-5.7,0-10.3,4.6-10.3,10.3s4.6,10.3,10.3,10.3
				S51,418.8,51,413.1S46.4,402.8,40.8,402.8z M231.1,83.8c-5.7,0-10.3,4.6-10.3,10.3s4.6,10.3,10.3,10.3s10.3-4.6,10.3-10.3
				S236.7,83.8,231.1,83.8z M180.2,414.5c-5,0-9.1,4.1-9.1,9.1s4.1,9.1,9.1,9.1s9.1-4.1,9.1-9.1S185.2,414.5,180.2,414.5z
				 M159,545.1c-6.3,0-11.5,5.1-11.5,11.5c0,6.3,5.1,11.5,11.5,11.5s11.5-5.1,11.5-11.5C170.5,550.3,165.4,545.1,159,545.1z
				 M485.4,439.7c-4.6,0-8.3,3.7-8.3,8.3s3.7,8.3,8.3,8.3c4.6,0,8.3-3.7,8.3-8.3S490,439.7,485.4,439.7z M118.6,187.5
				c-3.5,0-6.3,2.8-6.3,6.3s2.8,6.3,6.3,6.3c3.5,0,6.3-2.8,6.3-6.3S122,187.5,118.6,187.5z M250,205.1c-3.5,0-6.3,2.8-6.3,6.3
				c0,3.5,2.8,6.3,6.3,6.3s6.3-2.8,6.3-6.3C256.3,207.9,253.5,205.1,250,205.1z M400,130c-3.5,0-6.3,2.8-6.3,6.3
				c0,3.5,2.8,6.3,6.3,6.3s6.3-2.8,6.3-6.3C406.3,132.8,403.5,130,400,130z M336.9,182.7c-3.5,0-6.3,2.8-6.3,6.3
				c0,3.5,2.8,6.3,6.3,6.3s6.3-2.8,6.3-6.3C343.1,185.5,340.3,182.7,336.9,182.7z M512.1,319.8c-3.5,0-6.2,2.8-6.2,6.3
				s2.8,6.3,6.2,6.3c3.5,0,6.3-2.8,6.3-6.3S515.5,319.8,512.1,319.8z M389.9,509.7c-5.5,0-10,4.5-10,10c0,5.5,4.5,10,10,10
				s10-4.5,10-10C399.9,514.2,395.5,509.7,389.9,509.7z M481.5,530.8c-5.5,0-10,4.5-10,10s4.5,10,10,10c5.5,0,10-4.5,10-10
				S487.1,530.8,481.5,530.8z M346.5,53.3c-5.5,0-10,4.5-10,10s4.5,10,10,10s10-4.5,10-10S352.1,53.3,346.5,53.3z"/>
		</defs>
		<clipPath id="SVGID_2_">
			<use xlink:href="#SVGID_1_"  overflow="visible"/>
		</clipPath>
		<radialGradient id="SVGID_3_" cx="300" cy="321.015" r="345" gradientUnits="userSpaceOnUse">
			<stop  offset="0.4839" style="stop-color:#FBC640"/>
			<stop  offset="0.8065" style="stop-color:#F7941E"/>
			<stop  offset="1" style="stop-color:#E37E1E"/>
		</radialGradient>
		<circle clip-path="url(#SVGID_2_)" fill="url(#SVGID_3_)" cx="300" cy="321" r="345"/>
	</g>
	<circle fill="none" cx="309" cy="244.4" r="6.3"/>
</g>
<g id="Layer_1">
	<path fill="#FBD440" d="M300.1,368.3h-0.2c-5.5,0-9.9-4.4-9.9-9.9v-40.2c0-5.5,4.4-9.9,9.9-9.9h0.2c5.5,0,9.9,4.4,9.9,9.9v40.2
		C310,363.8,305.6,368.3,300.1,368.3z"/>
	<path fill="#939598" d="M340,600L340,600l-80,0v0c0-2.8,2.1-5.2,4.9-5.7l23.2-3.3c3.9-0.6,6.9-3.9,6.9-7.9l2-166.1
		c0-4.5-3.8-8.8-7-12L290,405c-3.2-3.2-5-7.5-5-12v-43h30v43c0,4.5-1.8,8.8-5,12L310,405c-3.2,3.2-7,7.5-7,12l2,166.1
		c0,4,2.9,7.4,6.9,7.9l23.2,3.3C337.9,594.7,340,597.1,340,600z"/>
	<radialGradient id="SVGID_4_" cx="300" cy="320" r="50" gradientUnits="userSpaceOnUse">
		<stop  offset="0" style="stop-color:#FBB040;stop-opacity:0"/>
		<stop  offset="0.7903" style="stop-color:#FBB040;stop-opacity:0.1129"/>
		<stop  offset="1" style="stop-color:#FBB040"/>
	</radialGradient>
	<circle fill="url(#SVGID_4_)" cx="300" cy="320" r="50"/>
</g>
</svg>
