<?xml version="1.0" encoding="utf-8"?>
<!-- Generator: Adobe Illustrator 17.1.0, SVG Export Plug-In . SVG Version: 6.00 Build 0)  -->
<!DOCTYPE svg PUBLIC "-//W3C//DTD SVG 1.1//EN" "http://www.w3.org/Graphics/SVG/1.1/DTD/svg11.dtd">
<svg version="1.1" xmlns="http://www.w3.org/2000/svg" xmlns:xlink="http://www.w3.org/1999/xlink" x="0px" y="0px"
	 viewBox="0 0 600 600" enable-background="new 0 0 600 600" xml:space="preserve">
<g id="bg">
	<circle cx="300" cy="300" r="200"/>
</g>
<g id="Layer_2">
</g>
<g id="Layer_3">
</g>
<g id="Layer_1">
	<circle fill="#FFFFFF" cx="300" cy="300" r="75"/>
	<circle fill="#FFFFFF" cx="414.9" cy="144.2" r="17.8"/>
	<circle fill="#FFFFFF" cx="254.4" cy="130.5" r="17.8"/>
	<circle fill="#FFFFFF" cx="245.8" cy="457" r="15.8"/>
	<circle fill="#FFFFFF" cx="100" cy="471.2" r="7.4"/>
	<circle fill="#FBC440" cx="300" cy="300" r="50"/>
	<circle fill="#FBC440" cx="444.5" cy="130.5" r="26.8"/>
	<circle fill="#FBC440" cx="466.3" cy="202.5" r="18.7"/>
	<circle fill="#FBC440" cx="131.7" cy="172.3" r="21.8"/>
	<circle fill="#FBC440" cx="212.8" cy="444.2" r="24.3"/>
	<circle fill="#FBC440" cx="104.9" cy="311.3" r="11.3"/>
	<circle fill="#FBC440" cx="358.3" cy="446.3" r="13.8"/>
	<circle fill="#FBC440" cx="466.3" cy="399.3" r="23.3"/>
	
		<rect x="118.9" y="317.6" transform="matrix(0.9397 -0.342 0.342 0.9397 -94.7924 102.0313)" fill="#FFFFFF" width="246" height="4.3"/>
	
		<rect x="293.5" y="276" transform="matrix(0.9397 -0.342 0.342 0.9397 -72.2011 146.9589)" fill="#FFFFFF" width="174.3" height="4.3"/>
	
		<rect x="345" y="252.6" transform="matrix(0.9397 -0.342 0.342 0.9397 -66.065 142.1272)" fill="#FFFFFF" width="50.1" height="11.6"/>
	
		<rect x="209.5" y="330.5" transform="matrix(0.9397 -0.342 0.342 0.9397 -102.9275 100.6669)" fill="#FFFFFF" width="49" height="23.5"/>
	
		<rect x="215" y="249.6" transform="matrix(0.9397 -0.342 0.342 0.9397 -72.9434 98.1121)" fill="#FFFFFF" width="53.4" height="12.5"/>
	<circle fill="#FFFFFF" cx="150.9" cy="189.5" r="13.1"/>
	<circle fill="#FFFFFF" cx="331.3" cy="169.3" r="7.3"/>
	<circle fill="#FFFFFF" cx="444.5" cy="415" r="15.8"/>
</g>
</svg>
