<?xml version="1.0" encoding="utf-8"?>
<!-- Generator: Adobe Illustrator 17.1.0, SVG Export Plug-In . SVG Version: 6.00 Build 0)  -->
<!DOCTYPE svg PUBLIC "-//W3C//DTD SVG 1.1//EN" "http://www.w3.org/Graphics/SVG/1.1/DTD/svg11.dtd">
<svg version="1.1" xmlns="http://www.w3.org/2000/svg" xmlns:xlink="http://www.w3.org/1999/xlink" x="0px" y="0px"
	 viewBox="0 0 600 600" enable-background="new 0 0 600 600" xml:space="preserve">
<g id="bg">
	<circle cx="300" cy="300" r="200"/>
</g>
<g id="Layer_2">
</g>
<g id="Layer_3">
</g>
<g id="Layer_1">
	<path fill="#FFFFFF" d="M359.3,145h-25c-5.5,0-10-4.5-10-10v-25c0-5.5,4.5-10,10-10h25c5.5,0,10,4.5,10,10v25
		C369.3,140.5,364.8,145,359.3,145z"/>
	<path fill="#FFFFFF" d="M419.3,145h-25c-5.5,0-10-4.5-10-10v-25c0-5.5,4.5-10,10-10h25c5.5,0,10,4.5,10,10v25
		C429.3,140.5,424.8,145,419.3,145z"/>
	<rect x="344.3" y="145" fill="#808285" width="5" height="300"/>
	<rect x="404.3" y="145" fill="#808285" width="5" height="300"/>
	<rect x="374.3" y="430" fill="#808285" width="5" height="59.5"/>
	<polygon fill="#808285" points="384.6,486.5 376.8,500 368.9,486.5 	"/>
	<path fill="#FFFFFF" d="M419.3,445h-85c-5.5,0-10-4.5-10-10v-10c0-5.5,4.5-10,10-10h85c5.5,0,10,4.5,10,10v10
		C429.3,440.5,424.8,445,419.3,445z"/>
	<rect x="212" y="292" fill="#D28A00" width="194.8" height="5"/>
	<rect x="212" y="277" fill="#D28A00" width="134.8" height="5"/>
	<circle fill="#FBC440" cx="346.8" cy="279.5" r="7.5"/>
	<circle fill="#FFFFFF" cx="346.8" cy="171.8" r="7.5"/>
	<circle fill="#FFFFFF" cx="346.8" cy="191.8" r="7.5"/>
	<circle fill="#FFFFFF" cx="346.8" cy="211.8" r="7.5"/>
	<circle fill="#FFFFFF" cx="406.8" cy="171.8" r="7.5"/>
	<circle fill="#FFFFFF" cx="406.8" cy="191.8" r="7.5"/>
	<circle fill="#FFFFFF" cx="406.8" cy="211.8" r="7.5"/>
	<circle fill="#FBC440" cx="406.8" cy="294.5" r="7.5"/>
	<path fill="#FBC440" d="M224.3,309.5h-25c-5.5,0-10-4.5-10-10v-25c0-5.5,4.5-10,10-10h25c5.5,0,10,4.5,10,10v25
		C234.3,305.1,229.8,309.5,224.3,309.5z"/>
	<rect x="212" y="352" fill="#D28A00" width="194.8" height="5"/>
	<rect x="212" y="337" fill="#D28A00" width="134.8" height="5"/>
	<circle fill="#FBC440" cx="346.8" cy="339.5" r="7.5"/>
	<circle fill="#FBC440" cx="406.8" cy="354.5" r="7.5"/>
	<path fill="#FBC440" d="M224.3,369.5h-25c-5.5,0-10-4.5-10-10v-25c0-5.5,4.5-10,10-10h25c5.5,0,10,4.5,10,10v25
		C234.3,365.1,229.8,369.5,224.3,369.5z"/>
	<path fill="#FBC440" d="M180.9,294.5h-8.3c-1.8,0-3.3-1.5-3.3-3.3v-8.3c0-1.8,1.5-3.3,3.3-3.3h8.3c1.8,0,3.3,1.5,3.3,3.3v8.3
		C184.3,293.1,182.8,294.5,180.9,294.5z"/>
	<path fill="#FBC440" d="M160.9,294.5h-8.3c-1.8,0-3.3-1.5-3.3-3.3v-8.3c0-1.8,1.5-3.3,3.3-3.3h8.3c1.8,0,3.3,1.5,3.3,3.3v8.3
		C164.3,293.1,162.8,294.5,160.9,294.5z"/>
	<path fill="#FBC440" d="M180.9,354.5h-8.3c-1.8,0-3.3-1.5-3.3-3.3v-8.3c0-1.8,1.5-3.3,3.3-3.3h8.3c1.8,0,3.3,1.5,3.3,3.3v8.3
		C184.3,353.1,182.8,354.5,180.9,354.5z"/>
	<path fill="#FBC440" d="M160.9,354.5h-8.3c-1.8,0-3.3-1.5-3.3-3.3v-8.3c0-1.8,1.5-3.3,3.3-3.3h8.3c1.8,0,3.3,1.5,3.3,3.3v8.3
		C164.3,353.1,162.8,354.5,160.9,354.5z"/>
	<path fill="#FBC440" d="M140.9,354.5h-8.3c-1.8,0-3.3-1.5-3.3-3.3v-8.3c0-1.8,1.5-3.3,3.3-3.3h8.3c1.8,0,3.3,1.5,3.3,3.3v8.3
		C144.3,353.1,142.8,354.5,140.9,354.5z"/>
	<path fill="#FBC440" d="M120.9,354.5h-8.3c-1.8,0-3.3-1.5-3.3-3.3v-8.3c0-1.8,1.5-3.3,3.3-3.3h8.3c1.8,0,3.3,1.5,3.3,3.3v8.3
		C124.3,353.1,122.8,354.5,120.9,354.5z"/>
</g>
</svg>
